<svg width="245" height="92" viewBox="0 0 245 92" fill="none" xmlns="http://www.w3.org/2000/svg">
<path d="M99.3271 78.8647H100.552V83.5398C100.552 84.7645 101.443 85.6555 102.611 85.6555C103.725 85.6555 104.67 84.7076 104.67 83.5398V78.8647H105.894V83.5398C105.894 85.4318 104.56 86.7703 102.611 86.7703C100.662 86.7703 99.3271 85.4356 99.3271 83.5398V78.8647Z" fill="#33142A"/>
<path d="M108.571 78.8647H109.685L113.974 84.5976V78.8647H115.198V86.6603H114.084L109.795 80.9273V86.6603H108.571V78.8647Z" fill="#33142A"/>
<path d="M117.991 78.8647H119.216V86.6603H117.991V78.8647Z" fill="#33142A"/>
<path d="M121.059 78.8647H122.34L124.733 85.1019L127.129 78.8647H128.411L125.404 86.6603H124.069L121.059 78.8647Z" fill="#33142A"/>
<path d="M130.241 78.8647H135.754V80.0325H131.465V82.0345H134.863V83.2023H131.465V85.4849H135.864V86.6527H130.241V78.8647Z" fill="#33142A"/>
<path d="M138.037 78.8647H141.268C142.769 78.8647 143.827 79.9339 143.827 81.3141C143.827 82.1937 143.448 82.7284 143.08 83.0734C142.856 83.2744 142.614 83.4298 142.333 83.5398L144.104 86.6565H142.712L141.097 83.7597H139.262V86.6565H138.037V78.8647ZM141.268 82.6487C142.06 82.6487 142.602 82.1027 142.602 81.3141C142.602 80.5254 142.056 79.9794 141.268 79.9794H139.262V82.6525H141.268V82.6487Z" fill="#33142A"/>
<path d="M146.334 84.7642C146.456 84.9311 146.611 85.0751 146.801 85.2078C147.123 85.4315 147.612 85.6552 148.283 85.6552C149.296 85.6552 149.842 85.1092 149.842 84.4874C149.842 82.7622 145.72 83.8201 145.72 80.9233C145.72 79.7555 146.733 78.7507 148.393 78.7507C149.193 78.7507 149.808 78.9971 150.221 79.2511C150.467 79.3952 150.676 79.5621 150.843 79.7516L150.009 80.5858C149.887 80.4531 149.754 80.328 149.595 80.2294C149.326 80.0512 148.917 79.8616 148.393 79.8616C147.445 79.8616 146.945 80.3507 146.945 80.9195C146.945 82.6447 151.066 81.5868 151.066 84.4836C151.066 85.7083 150.009 86.7662 148.283 86.7662C147.335 86.7662 146.634 86.4894 146.179 86.1861C145.91 86.0193 145.69 85.8183 145.5 85.5946L146.334 84.7642Z" fill="#33142A"/>
<path d="M153.193 78.8647H154.422V86.6603H153.197V78.8647H153.193Z" fill="#33142A"/>
<path d="M158.646 80.0325H156.307V78.8647H162.206V80.0325H159.867V86.6565H158.642V80.0325H158.646Z" fill="#33142A"/>
<path d="M166.001 83.8728L163.051 78.8603H164.442L166.611 82.6481L168.784 78.8603H170.175L167.225 83.8728V86.6559H166.001V83.8728Z" fill="#33142A"/>
<path d="M178.088 78.7507C180.428 78.7507 182.21 80.5327 182.21 82.7584C182.21 84.9841 180.428 86.7662 178.088 86.7662C175.749 86.7662 173.967 84.9841 173.967 82.7584C173.967 80.5327 175.749 78.7507 178.088 78.7507ZM178.088 85.6552C179.704 85.6552 180.985 84.3737 180.985 82.7584C180.985 81.1432 179.704 79.8616 178.088 79.8616C176.473 79.8616 175.191 81.1432 175.191 82.7584C175.191 84.3737 176.473 85.6552 178.088 85.6552Z" fill="#33142A"/>
<path d="M184.504 78.8647H189.96V80.0325H185.729V82.2582H189.069V83.426H185.729V86.6565H184.504V78.8647Z" fill="#33142A"/>
<path d="M198.2 78.7507C200.539 78.7507 202.321 80.5327 202.321 82.7584C202.321 84.9841 200.539 86.7662 198.2 86.7662C195.86 86.7662 194.078 84.9841 194.078 82.7584C194.078 80.5327 195.86 78.7507 198.2 78.7507ZM198.2 85.6552C199.815 85.6552 201.096 84.3737 201.096 82.7584C201.096 81.1432 199.815 79.8616 198.2 79.8616C196.584 79.8616 195.303 81.1432 195.303 82.7584C195.303 84.3737 196.584 85.6552 198.2 85.6552Z" fill="#33142A"/>
<path d="M206.168 82.5956L203.605 78.8647H205.053L206.945 81.7046L208.837 78.8647H210.285L207.726 82.5956L210.509 86.6603H209.061L206.945 83.4867L204.829 86.6603H203.381L206.168 82.5956Z" fill="#33142A"/>
<path d="M212.291 78.8647H217.747V80.0325H213.516V82.2582H216.856V83.426H213.516V86.6565H212.291V78.8647Z" fill="#33142A"/>
<path d="M223.213 78.7507C225.553 78.7507 227.335 80.5327 227.335 82.7584C227.335 84.9841 225.553 86.7662 223.213 86.7662C220.874 86.7662 219.092 84.9841 219.092 82.7584C219.092 80.5327 220.874 78.7507 223.213 78.7507ZM223.213 85.6552C224.829 85.6552 226.11 84.3737 226.11 82.7584C226.11 81.1432 224.829 79.8616 223.213 79.8616C221.598 79.8616 220.316 81.1432 220.316 82.7584C220.316 84.3737 221.598 85.6552 223.213 85.6552Z" fill="#33142A"/>
<path d="M229.618 78.8647H232.848C234.35 78.8647 235.408 79.9339 235.408 81.3141C235.408 82.1937 235.029 82.7284 234.661 83.0734C234.437 83.2744 234.194 83.4298 233.914 83.5398L235.685 86.6565H234.293L232.678 83.7597H230.843V86.6565H229.618V78.8647ZM232.845 82.6487C233.637 82.6487 234.179 82.1027 234.179 81.3141C234.179 80.5254 233.633 79.9794 232.845 79.9794H230.839V82.6525H232.845V82.6487Z" fill="#33142A"/>
<path d="M237.861 78.8647H240.478C242.76 78.8647 244.542 80.6581 244.542 82.7625C244.542 84.8668 242.76 86.6603 240.478 86.6603H237.861V78.8647ZM240.481 85.5456C242.097 85.5456 243.321 84.3208 243.321 82.7625C243.321 81.2041 242.097 79.9794 240.481 79.9794H239.09V85.5456H240.481Z" fill="#33142A"/>
<path d="M99.0969 5.03321H102.521L111.59 16.6698L120.66 5.03321H124.084V28.9888H120.319V11.3653L111.594 22.4862L102.866 11.3653V28.9888H99.1007V5.03321H99.0969Z" fill="#33142A"/>
<path d="M139.102 26.592C138.761 27.1039 138.313 27.5513 137.801 27.9608C136.876 28.6433 135.576 29.3296 133.797 29.3296C130.51 29.3296 128.322 27.1039 128.322 24.5408C128.322 21.8032 130.203 19.9225 133.111 19.4069L139.102 18.3793C139.102 16.6352 137.733 15.3005 135.678 15.3005C134.343 15.3005 133.35 15.8844 132.565 16.4304C132.118 16.7376 131.742 17.1167 131.401 17.5262L129.179 15.3005C129.623 14.7166 130.173 14.2047 130.821 13.7611C131.917 12.9762 133.49 12.2217 135.682 12.2217C139.788 12.2217 142.526 14.9593 142.526 18.5538V28.9922H139.102V26.592ZM139.102 21.1169L134.309 21.9738C132.565 22.2809 131.742 23.1379 131.742 24.1957C131.742 25.3939 132.736 26.4214 134.48 26.4214C137.047 26.4214 139.098 24.3701 139.098 21.6326V21.1169H139.102Z" fill="#33142A"/>
<path d="M146.936 12.5629H150.36V14.9593C150.701 14.4474 151.115 14 151.627 13.5905C152.483 12.908 153.75 12.2217 155.494 12.2217C159.259 12.2217 161.997 14.9252 161.997 19.4069V28.9884H158.573V19.4069C158.573 16.9764 157.033 15.4711 154.808 15.4711C152.241 15.4711 150.36 17.3556 150.36 20.0894V28.9884H146.936V12.5629Z" fill="#33142A"/>
<path d="M167.468 24.0251C167.809 24.4687 168.188 24.8479 168.632 25.155C169.417 25.701 170.41 26.2508 171.745 26.2508C173.659 26.2508 174.653 25.2574 174.653 24.1957C174.653 21.4582 165.928 22.8611 165.928 17.0106C165.928 14.4436 168.184 12.2217 171.915 12.2217C173.864 12.2217 175.339 12.8018 176.295 13.3516C176.879 13.6587 177.356 14.0341 177.732 14.4474L175.506 16.6693C175.233 16.4304 174.926 16.1916 174.547 15.9868C173.898 15.6114 173.007 15.3043 171.911 15.3043C170.167 15.3043 169.345 16.1612 169.345 17.0144C169.345 19.7519 178.069 18.3831 178.069 24.1995C178.069 26.9371 175.707 29.3334 171.737 29.3334C169.545 29.3334 167.972 28.5789 166.876 27.794C166.224 27.3466 165.678 26.8347 165.234 26.2546L167.468 24.0251Z" fill="#33142A"/>
<path d="M182.874 15.8115H180.307V12.5583H182.874V10.1619C182.874 6.56746 184.725 4.68681 188.008 4.68681C188.797 4.68681 189.411 4.82331 189.859 4.9598C190.097 5.06218 190.336 5.13043 190.579 5.19868V8.44813L190.033 8.20925C189.658 8.07275 189.21 7.93625 188.698 7.93625C187.091 7.93625 186.302 8.79316 186.302 10.5032V12.5545H190.238V15.8077H186.302V28.9837H182.878V15.8115H182.874Z" fill="#33142A"/>
<path d="M195.538 5.37359C196.599 5.37359 197.593 6.2305 197.593 7.42487C197.593 8.62303 196.599 9.47995 195.538 9.47995C194.476 9.47995 193.486 8.62303 193.486 7.42487C193.486 6.2305 194.48 5.37359 195.538 5.37359ZM193.828 12.5625H197.251V28.988H193.828V12.5625Z" fill="#33142A"/>
<path d="M216.373 26.2508C215.93 26.8347 215.346 27.3466 214.663 27.7902C213.465 28.5751 211.789 29.3296 209.359 29.3296C204.57 29.3296 200.805 25.5645 200.805 20.7757C200.805 15.9868 204.57 12.2217 209.188 12.2217C213.84 12.2217 217.23 15.6076 217.23 20.2638C217.23 20.7757 217.162 21.1889 217.128 21.4961L217.059 21.9738H204.399C204.775 24.1957 206.761 26.0802 209.533 26.0802C211.004 26.0802 212.202 25.5342 213.021 24.9844C213.499 24.6773 213.947 24.3019 214.322 23.8545L216.373 26.2508ZM213.639 19.0656C213.128 16.8399 211.618 15.3005 209.192 15.3005C206.591 15.3005 205.085 16.8399 204.403 19.0656H213.639Z" fill="#33142A"/>
<path d="M220.791 5.03321H224.215V28.9888H220.791V5.03321Z" fill="#33142A"/>
<path d="M240.739 26.5909C240.398 27.1028 239.951 27.5502 239.405 27.9597C238.479 28.6422 237.042 29.3285 235.093 29.3285C230.987 29.3285 227.393 25.734 227.393 20.7745C227.393 15.8113 230.987 12.2206 235.093 12.2206C237.042 12.2206 238.479 12.9031 239.405 13.5894C239.951 13.9989 240.398 14.4463 240.739 14.9581V5.03541H244.159V28.991H240.739V26.5909ZM240.739 20.7745C240.739 17.6616 238.513 15.47 235.776 15.47C233.038 15.47 230.813 17.6616 230.813 20.7745C230.813 23.8913 233.038 26.079 235.776 26.079C238.517 26.079 240.739 23.8875 240.739 20.7745Z" fill="#33142A"/>
<path d="M120.142 57.8104C119.422 58.7014 118.603 59.4863 117.61 60.2067C115.934 61.4049 113.503 62.603 110.216 62.603C103.031 62.603 97.5557 57.1279 97.5557 50.284C97.5557 43.44 103.031 37.9649 110.216 37.9649C113.503 37.9649 115.896 39.0948 117.538 40.293C118.463 40.9755 119.282 41.73 119.968 42.5869L117.572 44.9832C117.094 44.3311 116.476 43.7168 115.759 43.205C114.527 42.2798 112.681 41.3926 110.216 41.3926C105.253 41.3926 101.321 45.3283 101.321 50.2878C101.321 55.2472 105.256 59.183 110.216 59.183C112.681 59.183 114.561 58.2578 115.828 57.3023C116.582 56.7563 117.231 56.1383 117.742 55.4216L120.142 57.8104Z" fill="#33142A"/>
<path d="M130.757 45.4932C135.55 45.4932 139.311 49.2583 139.311 54.0472C139.311 58.8398 135.546 62.6011 130.757 62.6011C125.968 62.6011 122.203 58.836 122.203 54.0472C122.203 49.2583 125.964 45.4932 130.757 45.4932ZM135.891 54.0472C135.891 50.9342 133.665 48.7427 130.757 48.7427C127.849 48.7427 125.623 50.9342 125.623 54.0472C125.623 57.1639 127.849 59.3517 130.757 59.3517C133.665 59.3517 135.891 57.1639 135.891 54.0472Z" fill="#33142A"/>
<path d="M142.869 38.308H146.293V62.2636H142.869V38.308Z" fill="#33142A"/>
<path d="M151.422 38.308H154.846V62.2636H151.422V38.308Z" fill="#33142A"/>
<path d="M174.361 59.5267C173.918 60.1106 173.334 60.6225 172.651 61.0661C171.453 61.851 169.777 62.6055 167.347 62.6055C162.558 62.6055 158.793 58.8404 158.793 54.0516C158.793 49.2627 162.558 45.4976 167.176 45.4976C171.829 45.4976 175.218 48.8836 175.218 53.5397C175.218 54.0516 175.15 54.4649 175.116 54.772L175.048 55.2497H162.384C162.759 57.4716 164.746 59.3561 167.518 59.3561C168.989 59.3561 170.187 58.8101 171.006 58.2603C171.484 57.9532 171.931 57.5778 172.306 57.1304L174.361 59.5267ZM171.624 52.3377C171.112 50.112 169.603 48.5726 167.176 48.5726C164.575 48.5726 163.07 50.112 162.387 52.3377H171.624Z" fill="#33142A"/>
<path d="M180.856 63.8037C181.231 64.2511 181.645 64.6606 182.088 65.0018C182.877 65.654 184.003 66.2 185.474 66.2C188.591 66.2 190.608 64.179 190.608 60.8955V59.3561C190.267 59.8338 189.823 60.2812 189.308 60.6566C188.383 61.3088 187.082 61.923 185.304 61.923C181.368 61.923 177.944 58.4992 177.944 53.7103C177.944 48.9215 181.368 45.4976 185.304 45.4976C187.082 45.4976 188.383 46.146 189.308 46.7981C189.82 47.1735 190.267 47.6209 190.608 48.0645V45.8389H194.032V60.8955C194.032 65.8587 190.438 69.4494 185.478 69.4494C183.15 69.4494 181.44 68.5925 180.242 67.7394C179.559 67.2275 178.975 66.6778 178.464 66.0294L180.856 63.8037ZM190.608 53.7065C190.608 50.7983 188.557 48.7433 185.99 48.7433C183.423 48.7433 181.372 50.7983 181.372 53.7065C181.372 56.6147 183.427 58.6698 185.99 58.6698C188.557 58.6698 190.608 56.6147 190.608 53.7065Z" fill="#33142A"/>
<path d="M213.367 59.5267C212.924 60.1106 212.34 60.6225 211.657 61.0661C210.459 61.851 208.783 62.6055 206.353 62.6055C201.564 62.6055 197.799 58.8404 197.799 54.0516C197.799 49.2627 201.564 45.4976 206.182 45.4976C210.835 45.4976 214.224 48.8836 214.224 53.5397C214.224 54.0516 214.156 54.4649 214.122 54.772L214.054 55.2497H201.39C201.765 57.4716 203.752 59.3561 206.523 59.3561C207.995 59.3561 209.193 58.8101 210.012 58.2603C210.489 57.9532 210.937 57.5778 211.312 57.1304L213.367 59.5267ZM210.63 52.3377C210.118 50.112 208.609 48.5726 206.182 48.5726C203.581 48.5726 202.076 50.112 201.393 52.3377H210.63Z" fill="#33142A"/>
<path d="M77.5219 0.0151666C77.5219 0.0151666 68.5471 -0.0189582 38.7978 0.0151666C9.04852 -0.0151666 0.0736916 0.0151666 0.0736916 0.0151666C0.0623167 11.2915 -0.157599 34.394 0.221566 38.2767C1.92781 55.5552 7.27782 68.5075 16.7039 78.1724C22.38 83.9926 28.8788 88.1103 36.9399 90.992C37.611 91.2308 38.2745 91.4432 38.7333 91.5721V91.61C38.7523 91.6062 38.775 91.5986 38.7978 91.5911C38.8205 91.5986 38.8433 91.6024 38.8622 91.61V91.5759C39.3248 91.447 39.9846 91.2346 40.6557 90.9958C48.7129 88.1141 55.2156 83.9964 60.8917 78.1762C70.3178 68.5113 75.6678 55.5552 77.374 38.2805C77.7532 34.3978 77.5295 11.2915 77.5219 0.0151666Z" fill="#D73316"/>
<path d="M39.976 85.1959V83.8271H41.9211H43.8662V82.6707V81.518H41.9211H39.976V78.9245V76.3311H42.5694H45.1667V78.2762V80.2213H46.3194H47.472V78.2762V76.3311H48.8408H50.2096V75.2504V74.166H48.8408H47.472V72.365V70.564H46.3194H45.1667V72.365V74.166H42.5694H39.976V71.6446V69.1231H41.9211H43.8662V68.0425V66.9619H41.9211H39.976V65.4452V63.9324H38.8953H37.8147V65.4452V66.9619H36.0137H34.2089V68.0425V69.1231H36.0137H37.8147V71.6446V74.166H35.2895H32.768V72.2929V70.4199H31.6874H30.6068V72.2929V74.166H29.0939H27.5811V75.2504V76.3311H29.0939H30.6068V78.2762V80.2213H31.6874H32.768V78.2762V76.3311H35.2895H37.8147V78.9245V81.518H35.9416H34.0648V82.6707V83.8271H35.9416H37.8147V85.1959V86.5647H38.8953H39.976V85.1959Z" fill="#E8BB2A"/>
<path d="M19.5757 25.0524V23.7178H21.4563H23.3408V22.622V21.5224H21.4563H19.5757V18.9327V16.3468H22.1616H24.7513V18.2274V20.1119H25.8509H26.9466V18.2274V16.3468H28.2813H29.616V15.2472V14.1476H28.2813H26.9466V12.3466V10.5418H25.8509H24.7513V12.3466V14.1476H22.1616H19.5757V11.6414V9.13128H21.4563H23.3408V8.03171V6.93213H21.4563H19.5757V5.442V3.95189H18.4761H17.3803V5.442V6.93213H15.5755H13.7707V8.03171V9.13128H15.5755H17.3803V11.6414V14.1476H14.8702H12.3602V12.267V10.3863H11.2606H10.1648V12.267V14.1476H8.67469H7.18457V15.2472V16.3468H8.67469H10.1648V18.2274V20.1119H11.2606H12.3602V18.2274V16.3468H14.8702H17.3803V18.9327V21.5224H15.4959H13.6152V22.622V23.7178H15.4959H17.3803V25.0524V26.3833H18.4761H19.5757V25.0524Z" fill="#E8BB2A"/>
<path d="M60.0659 25.0524V23.7178H61.9504H63.831V22.622V21.5224H61.9504H60.0659V18.9327V16.3468H62.6556H65.2453V18.2274V20.1119H66.3411H67.4407V18.2274V16.3468H68.8512H70.2654V15.2472V14.1476H68.8512H67.4407V12.3466V10.5418H66.3411H65.2453V12.3466V14.1476H62.6556H60.0659V11.6414V9.13128H61.9504H63.831V8.03171V6.93213H61.9504H60.0659V5.442V3.95189H58.9701H57.8706V5.442V6.93213H56.0695H54.2647V8.03171V9.13128H56.0695H57.8706V11.6414V14.1476H55.3605H52.8504V12.267V10.3863H51.7546H50.655V12.267V14.1476H49.1649H47.6748V15.2472V16.3468H49.1649H50.655V18.2274V20.1119H51.7546H52.8504V18.2274V16.3468H55.3605H57.8706V18.9327V21.5224H56.0695H54.2647V22.622V23.7178H56.0695H57.8706V25.0524V26.3833H58.9701H60.0659V25.0524Z" fill="#E8BB2A"/>
<path d="M62.4327 33.7842C61.4014 33.7842 61.2838 33.7462 60.6544 33.2306C59.9909 32.6884 59.9681 32.6808 59.2705 32.8666C58.0458 33.1927 56.1006 32.7035 52.3886 31.1338C46.8756 28.7981 42.7161 29.0825 39.7321 31.9945C39.1633 32.5481 38.697 32.9993 38.6894 32.9993C38.6818 32.9993 38.2116 32.5481 37.6467 31.9945C34.6627 29.0825 30.5032 28.8019 24.9902 31.1338C21.2819 32.6997 19.3292 33.1964 18.1121 32.8704C17.4258 32.6884 17.3993 32.6922 16.7661 33.2344C16.167 33.75 16.0495 33.7879 15.0598 33.7879H13.9944V58.1H37.0021L37.1879 57.6488C37.4685 56.9739 38.3671 56.0639 38.7539 56.0639C39.2013 56.0639 39.7586 56.6819 40.0165 57.4668L40.225 58.1H63.5361V33.7879H62.4327V33.7842ZM15.3935 45.58V34.9444L17.5889 33.1358V54.4524L16.5841 55.3321C16.0305 55.8174 15.5376 56.2118 15.4883 56.2118C15.4352 56.2156 15.3935 51.4305 15.3935 45.58ZM38.1396 54.388C37.5671 54.5017 36.3613 55.5823 36.0997 56.2193L35.9063 56.6857H25.885C20.3757 56.6857 15.8637 56.6554 15.8637 56.6212C15.8637 56.5871 16.277 56.2004 16.785 55.7606L17.7064 54.9643L20.5881 54.9112C24.0005 54.8468 24.8461 54.6913 28.7477 53.387C30.2681 52.8789 31.9896 52.3822 32.5697 52.2798C34.0674 52.0182 35.8532 52.1547 36.7291 52.5945C37.3964 52.932 38.6098 53.9557 38.6098 54.187C38.6098 54.2439 38.3974 54.3349 38.1396 54.388ZM38.1965 53.0533C37.5292 52.4353 36.5699 51.9916 35.4741 51.7869C33.9309 51.4987 32.2663 51.7907 28.6264 52.9813C26.8898 53.5462 24.8802 54.115 24.156 54.2401C23.0033 54.4411 21.1303 54.5738 19.8259 54.5738C19.3482 54.5738 18.9463 54.5586 18.6847 54.5169L17.9794 54.4107L17.896 33.3481L18.878 33.3405C20.4136 33.3292 21.809 32.931 24.9636 31.604C27.4699 30.5499 29.0472 30.1518 31.0833 30.0608C33.9043 29.9318 35.5461 30.5309 37.3889 32.3775L38.4505 33.4391V41.9817C38.4505 46.6795 38.496 51.1878 38.5491 51.9993L38.6477 53.4742L38.1965 53.0533ZM38.9207 43.4908V33.4353L39.9823 32.3737C41.8251 30.5309 43.4669 29.9281 46.2879 30.057C48.324 30.1518 49.9051 30.5499 52.4114 31.6002C55.5622 32.9272 56.9613 33.3254 58.4932 33.3367L59.4714 33.3443V43.8282C59.4714 49.7318 59.4108 54.3501 59.3349 54.3956C59.0657 54.5624 56.0817 54.6193 54.8456 54.479C52.9763 54.2704 51.5734 53.9254 48.506 52.9206C45.4309 51.9158 43.7967 51.5784 42.6479 51.7149C41.6886 51.8286 40.4184 52.4011 39.679 53.0495C39.3681 53.3225 39.0723 53.5424 39.0193 53.5424C38.9662 53.5462 38.9207 49.0228 38.9207 43.4908ZM51.653 56.6857H41.6393L41.4687 56.3104C41.1729 55.6582 40.3729 54.8657 39.7093 54.5662L39.0686 54.278L39.6373 53.6941C40.5094 52.8031 41.6128 52.2684 42.7806 52.1737C44.1039 52.0675 45.1921 52.295 48.5704 53.3908C52.6161 54.7027 53.4048 54.8506 56.7869 54.9112L59.6686 54.9643L60.6696 55.7606C61.2194 56.1966 61.6706 56.5833 61.6706 56.6212C61.6706 56.6592 57.1623 56.6857 51.653 56.6857ZM62.099 56.3634C62.0763 56.3596 61.5492 55.9312 60.9236 55.4117L59.7861 54.4676V43.8017C59.7861 33.4619 59.7937 33.1434 60.0743 33.3405C60.2335 33.4543 60.7606 33.8638 61.2421 34.2505L62.1218 34.9558L62.1294 45.6634C62.1369 51.5556 62.1218 56.3672 62.099 56.3634Z" fill="#E8BB2A"/>
<path d="M59.4717 33.3471V43.831C59.4717 49.7346 59.4111 54.3529 59.3353 54.3984C59.066 54.5652 56.082 54.6221 54.8459 54.4818C52.9767 54.2732 51.5738 53.9282 48.5063 52.9234C45.4313 51.9186 43.7971 51.5812 42.6482 51.7177C41.6889 51.8314 40.4187 52.404 39.6794 53.0523C39.3684 53.3253 39.0727 53.5452 39.0196 53.5452C38.9665 53.5452 38.9248 49.0218 38.9248 43.4898V33.4344L39.9865 32.3727C41.8292 30.5299 43.471 29.9271 46.292 30.056C48.3281 30.1508 49.9092 30.5489 52.4155 31.5992C55.5664 32.9263 56.9655 33.3244 58.4973 33.3358L59.4717 33.3471Z" fill="#F1E9E2"/>
<path d="M38.6546 53.4701L38.1997 53.053C37.5323 52.435 36.573 51.9913 35.4772 51.7866C33.934 51.4984 32.2695 51.7904 28.6295 52.981C26.893 53.5459 24.8834 54.1147 24.1592 54.2398C23.0065 54.4407 21.1334 54.5735 19.8291 54.5735C19.3514 54.5735 18.9495 54.5583 18.6878 54.5166L17.9826 54.4104L17.8992 33.3478L18.8812 33.3402C20.4168 33.3289 21.8121 32.9307 24.9668 31.6036C27.4731 30.5496 29.0504 30.1515 31.0865 30.0605C33.9075 29.9315 35.5493 30.5306 37.392 32.3771L38.4537 33.4388V41.9814C38.4537 46.6792 38.4992 51.1875 38.5523 51.9989L38.6546 53.4701Z" fill="#F1E9E2"/>
<path d="M23.4883 38.5545C22.9651 38.1753 22.4304 37.8075 21.8769 37.4511C22.0285 37.9289 22.1802 38.4104 22.3281 38.8882C22.2143 38.9223 22.1006 38.9602 21.983 38.9943C21.7631 38.3042 21.5394 37.6142 21.3081 36.9241C21.4105 36.89 21.5129 36.8596 21.6152 36.8293C22.1764 37.1857 22.7224 37.5535 23.2532 37.9289C23.1167 37.4435 22.9764 36.9582 22.8323 36.4729C22.9537 36.4387 23.075 36.4046 23.2001 36.3743C23.4011 37.072 23.5945 37.7734 23.7803 38.4711C23.6855 38.5014 23.5869 38.528 23.4883 38.5545Z" fill="#D73316"/>
<path d="M25.8541 37.0704C25.9906 37.7225 25.6417 38.0676 25.1905 38.1699C24.6559 38.2913 24.2009 38.0751 24.0379 37.4609C23.9317 37.0552 23.8255 36.6533 23.7156 36.2514C23.8483 36.2172 23.981 36.1869 24.1099 36.1528C24.2085 36.5319 24.3071 36.9111 24.4019 37.2865C24.5042 37.6808 24.7355 37.9045 25.1071 37.8211C25.437 37.7491 25.5432 37.4874 25.4484 37.0741C25.3612 36.6836 25.2702 36.2969 25.1792 35.9063C25.3119 35.8798 25.4446 35.8494 25.5773 35.8229C25.6721 36.24 25.7669 36.6571 25.8541 37.0704Z" fill="#D73316"/>
<path d="M26.0964 35.7195C26.2291 35.693 26.3656 35.6702 26.4983 35.6437C26.6197 36.239 26.7372 36.8342 26.851 37.4295C27.1808 37.3689 27.5145 37.3158 27.8482 37.2627C27.8671 37.3802 27.8861 37.4978 27.9051 37.6153C27.4463 37.6874 26.9875 37.7632 26.5325 37.8504C26.396 37.1414 26.2519 36.4323 26.0964 35.7195Z" fill="#D73316"/>
<path d="M27.8242 35.4325C27.9607 35.4136 28.0972 35.3946 28.2337 35.3756C28.3323 35.9747 28.4271 36.5738 28.5143 37.1729C28.848 37.1274 29.1854 37.0857 29.5229 37.0478C29.538 37.1653 29.5532 37.2828 29.5684 37.4042C29.102 37.4573 28.6394 37.5179 28.1806 37.5862C28.0669 36.862 27.9493 36.1453 27.8242 35.4325Z" fill="#D73316"/>
<path d="M29.6196 35.2025C29.7561 35.1873 29.8964 35.1722 30.0329 35.1608C30.1201 35.8812 30.2035 36.6016 30.2794 37.3258C30.1467 37.3372 30.0177 37.3524 29.885 37.3637C29.8016 36.6433 29.7144 35.9229 29.6196 35.2025Z" fill="#D73316"/>
<path d="M32.6501 36.2649C32.6842 36.9284 32.271 37.2128 31.8008 37.2431C31.2396 37.2734 30.815 36.9891 30.7505 36.3559C30.7088 35.9388 30.6671 35.5255 30.6216 35.1084C30.7581 35.097 30.8984 35.0857 31.0387 35.0781C31.0766 35.4686 31.1145 35.8554 31.1486 36.2459C31.1865 36.6516 31.3837 36.9094 31.778 36.8867C32.1231 36.8677 32.2709 36.6289 32.2444 36.2042C32.2179 35.8061 32.1913 35.4079 32.161 35.0098C32.2975 35.0022 32.4378 34.9985 32.5781 34.9909C32.6008 35.4155 32.6274 35.8402 32.6501 36.2649Z" fill="#D73316"/>
<path d="M33.0212 35.5444C33.0023 35.2183 33.2677 34.9339 33.734 34.9301C34.0298 34.9263 34.2801 35.0173 34.4279 35.1614C34.3559 35.2562 34.2838 35.351 34.2118 35.4458C34.0943 35.3434 33.9767 35.2828 33.7833 35.2866C33.5748 35.2866 33.4535 35.3889 33.461 35.5292C33.48 35.9766 34.5417 35.8288 34.5492 36.5605C34.553 36.9283 34.2156 37.171 33.7909 37.1748C33.499 37.1786 33.1539 37.0648 33.0326 36.8449C33.1046 36.7577 33.1767 36.6667 33.2525 36.5795C33.3928 36.7425 33.6127 36.8184 33.7909 36.8184C33.9805 36.8184 34.1246 36.7274 34.1208 36.5605C34.1094 36.1321 33.0591 36.2496 33.0212 35.5444Z" fill="#D73316"/>
<path d="M20.6284 42.5077C20.746 42.4622 21.0341 42.3636 21.254 42.2991C21.7773 42.1399 22.0465 42.3143 22.1299 42.6025C22.202 42.8413 22.1223 43.0271 21.9631 43.1636C21.9631 43.1674 21.9631 43.1674 21.9631 43.1712C22.1906 43.1598 22.4029 43.2698 22.4825 43.5466C22.6077 43.975 22.3233 44.267 21.8835 44.4035C21.6901 44.4604 21.4209 44.54 21.2957 44.5703C21.0834 43.8802 20.8597 43.194 20.6284 42.5077ZM21.1213 42.72C21.1782 42.8944 21.2351 43.0688 21.2882 43.2432C21.3716 43.2167 21.4588 43.1902 21.5422 43.1674C21.7166 43.1143 21.8342 42.9854 21.7773 42.7958C21.7242 42.6252 21.5612 42.5759 21.3564 42.6404C21.2692 42.6669 21.1896 42.6935 21.1213 42.72ZM21.3905 43.5617C21.4474 43.7437 21.5043 43.9257 21.5612 44.1115C21.6142 44.1002 21.7052 44.085 21.8114 44.0509C22.0617 43.975 22.1678 43.831 22.1072 43.6338C22.0541 43.4594 21.891 43.4101 21.656 43.4783C21.5687 43.5087 21.4777 43.5352 21.3905 43.5617Z" fill="#D73316"/>
<path d="M23.4693 41.6604C24.1366 41.4935 24.7471 41.812 24.9025 42.4718C25.0504 43.1088 24.6712 43.6737 24.038 43.8292C23.4048 43.9885 22.8171 43.6927 22.6275 43.0405C22.4493 42.4415 22.7792 41.8348 23.4693 41.6604ZM23.9508 43.4879C24.402 43.3742 24.5954 42.9875 24.493 42.5704C24.3869 42.1343 23.9812 41.903 23.5603 42.0092C23.1356 42.1154 22.9081 42.5021 23.0295 42.9382C23.147 43.3552 23.5489 43.5865 23.9508 43.4879Z" fill="#D73316"/>
<path d="M27.0659 43.1411C26.573 42.7202 26.0649 42.3069 25.5455 41.9012C25.6554 42.3903 25.7654 42.8832 25.8678 43.3724C25.7502 43.3989 25.6289 43.4217 25.5113 43.4482C25.3521 42.7392 25.1928 42.0339 25.0222 41.3287C25.1284 41.3059 25.2345 41.2832 25.3369 41.2604C25.864 41.6661 26.3796 42.0794 26.8839 42.5003C26.7891 42.0036 26.6868 41.5107 26.5882 41.014C26.7133 40.9912 26.8384 40.9685 26.9635 40.9457C27.1038 41.6585 27.2403 42.3714 27.3692 43.0842C27.2707 43.107 27.1683 43.1259 27.0659 43.1411Z" fill="#D73316"/>
<path d="M27.561 40.849C27.6937 40.8263 27.8302 40.8073 27.9667 40.7846C28.0919 41.5012 28.217 42.214 28.3307 42.9306C28.2018 42.9496 28.0729 42.9723 27.944 42.9913C27.8227 42.2785 27.6937 41.5619 27.561 40.849Z" fill="#D73316"/>
<path d="M29.1616 41.1856C29.1124 40.8633 29.3399 40.5562 29.7949 40.5031C30.0792 40.469 30.3333 40.5335 30.4887 40.6624C30.4281 40.7647 30.3674 40.8671 30.3067 40.9695C30.1816 40.8785 30.0603 40.833 29.8745 40.8557C29.6735 40.8785 29.5636 40.9884 29.5863 41.1325C29.6508 41.5762 30.6669 41.3183 30.7503 42.0425C30.7921 42.4065 30.4887 42.6871 30.0754 42.7364C29.7911 42.7705 29.4422 42.6909 29.3019 42.4899C29.3626 42.3952 29.4271 42.2966 29.4877 42.2018C29.6432 42.3497 29.8631 42.4027 30.0375 42.3838C30.2233 42.361 30.3522 42.2587 30.3333 42.0918C30.2764 41.6558 29.2678 41.8833 29.1616 41.1856Z" fill="#D73316"/>
<path d="M30.9966 40.4065C31.1331 40.3951 31.2696 40.3799 31.4099 40.3686C31.4895 41.089 31.5615 41.8132 31.6336 42.5336C31.5009 42.545 31.372 42.5563 31.2393 42.5677C31.1596 41.8473 31.08 41.1269 30.9966 40.4065Z" fill="#D73316"/>
<path d="M33.8323 42.4018C33.3887 41.9165 32.9337 41.435 32.4635 40.961C32.5052 41.4615 32.5469 41.962 32.5849 42.4663C32.4597 42.4739 32.3384 42.4814 32.2133 42.4928C32.1526 41.7686 32.0882 41.0482 32.0161 40.324C32.1261 40.3164 32.236 40.3088 32.346 40.3012C32.8237 40.7752 33.2863 41.2567 33.7375 41.7459C33.7072 41.2416 33.6769 40.7373 33.6427 40.233C33.7716 40.2292 33.9006 40.2216 34.0333 40.2178C34.075 40.942 34.1167 41.67 34.147 42.3942C34.0446 42.3942 33.9385 42.398 33.8323 42.4018Z" fill="#D73316"/>
<path d="M34.6121 40.2034C35.0708 40.1921 35.5296 40.1921 35.9884 40.1921C35.9922 40.3096 35.9922 40.4309 35.996 40.5485C35.6775 40.5447 35.359 40.5485 35.0405 40.5523C35.0481 40.7343 35.0557 40.9125 35.0595 41.0945C35.3401 41.0907 35.6206 41.0907 35.905 41.0907C35.9088 41.2082 35.9088 41.3296 35.9126 41.4471C35.632 41.4471 35.3552 41.4471 35.0746 41.4509C35.0822 41.6367 35.086 41.8263 35.0936 42.012C35.4121 42.0083 35.7344 42.0083 36.0529 42.0083C36.0529 42.1258 36.0567 42.2471 36.0567 42.3647C35.6055 42.3609 35.1505 42.3647 34.7031 42.3723C34.6765 41.6518 34.6462 40.9276 34.6121 40.2034Z" fill="#D73316"/>
<path d="M23.7949 47.8174C23.6887 47.5065 23.8631 47.1653 24.303 47.0364C24.5797 46.9567 24.8414 46.9795 25.0158 47.0819C24.9703 47.1918 24.9286 47.3018 24.8869 47.4155C24.7504 47.3473 24.6215 47.3207 24.4433 47.3738C24.2499 47.4307 24.1627 47.5558 24.2044 47.6923C24.3409 48.117 25.2964 47.6999 25.486 48.4051C25.5807 48.7616 25.3305 49.0801 24.94 49.1938C24.6708 49.2697 24.3219 49.2545 24.1513 49.0763C24.193 48.9701 24.2385 48.8677 24.284 48.7616C24.4584 48.8791 24.6821 48.8981 24.8452 48.8488C25.0196 48.7995 25.1295 48.6744 25.084 48.5151C24.9665 48.0942 24.0186 48.4848 23.7949 47.8174Z" fill="#D73316"/>
<path d="M26.4438 46.4945C27.1339 46.3467 27.7519 46.6917 27.877 47.359C27.9984 47.9998 27.5889 48.5458 26.9519 48.6823C26.3149 48.8188 25.731 48.5117 25.549 47.8595C25.3821 47.2491 25.7272 46.65 26.4438 46.4945ZM26.8723 48.3335C27.3273 48.2349 27.5396 47.8557 27.4562 47.4348C27.3652 46.9912 26.9595 46.7486 26.5272 46.8434C26.0874 46.9381 25.8447 47.3211 25.9585 47.7571C26.0684 48.178 26.4666 48.4207 26.8723 48.3335Z" fill="#D73316"/>
<path d="M30.1066 47.9312C29.9815 48.0904 29.7123 48.2194 29.4241 48.2573C28.7492 48.3445 28.2184 47.9881 28.0895 47.3207C27.9719 46.7065 28.298 46.1415 29.0829 46.0354C29.39 45.9937 29.663 46.0543 29.8374 46.1681C29.7881 46.2667 29.7388 46.369 29.6896 46.4676C29.5379 46.3956 29.3749 46.3577 29.1398 46.388C28.7037 46.4449 28.4307 46.7861 28.5104 47.2487C28.59 47.6961 28.954 47.9539 29.409 47.8933C29.5986 47.8705 29.7806 47.7871 29.9209 47.6582C29.9853 47.753 30.046 47.8402 30.1066 47.9312Z" fill="#D73316"/>
<path d="M30.25 45.9422C30.3903 45.9309 30.5306 45.9157 30.6709 45.9043C30.7543 46.6247 30.8263 47.3489 30.8908 48.0732C30.7581 48.0845 30.6292 48.0959 30.4965 48.1073C30.4244 47.3869 30.341 46.6626 30.25 45.9422Z" fill="#D73316"/>
<path d="M32.3742 45.7783C33.0984 45.7593 33.6634 46.2143 33.6672 46.893C33.6709 47.549 33.1591 48.0078 32.488 48.0229C31.8168 48.0419 31.2822 47.6324 31.2215 46.9575C31.1647 46.3281 31.6235 45.801 32.3742 45.7783ZM32.4766 47.6665C32.9581 47.6552 33.2425 47.3215 33.2311 46.8892C33.2197 46.438 32.852 46.1233 32.397 46.1347C31.9344 46.1461 31.6197 46.4797 31.6576 46.9309C31.6917 47.367 32.0481 47.6779 32.4766 47.6665Z" fill="#D73316"/>
<path d="M41.8332 34.6933C41.9735 34.6933 42.1138 34.6933 42.2541 34.6933C42.2313 35.4213 42.2124 36.1455 42.201 36.8697C42.0683 36.8697 41.9318 36.8697 41.7991 36.8697C41.8029 36.1455 41.8142 35.4213 41.8332 34.6933Z" fill="#D73316"/>
<path d="M44.6981 36.0383C44.6488 36.7018 44.2052 36.9483 43.7313 36.9331C43.1663 36.9141 42.772 36.588 42.7909 35.951C42.8061 35.534 42.8213 35.1169 42.8402 34.696C42.9805 34.6998 43.1208 34.6998 43.2611 34.7036C43.2421 35.0941 43.2232 35.4847 43.2042 35.8752C43.1853 36.2809 43.3521 36.5577 43.7502 36.5729C44.0953 36.5843 44.2735 36.3605 44.3038 35.9397C44.3303 35.5416 44.3607 35.1434 44.391 34.7453C44.5275 34.7529 44.6678 34.7605 44.8043 34.7681C44.7626 35.1889 44.7285 35.6136 44.6981 36.0383Z" fill="#D73316"/>
<path d="M46.8902 36.9083C46.7309 37.0372 46.4352 37.1092 46.1432 37.0827C45.4607 37.022 45.0171 36.5518 45.0702 35.8731C45.1195 35.2513 45.5973 34.7774 46.3745 34.8456C46.6817 34.8722 46.9243 34.9897 47.0608 35.1338C46.9888 35.221 46.9129 35.3082 46.8409 35.3954C46.712 35.293 46.5679 35.221 46.3328 35.1982C45.8968 35.1603 45.5404 35.4257 45.4987 35.8997C45.457 36.3509 45.7527 36.6846 46.2153 36.7263C46.4049 36.7452 46.602 36.7035 46.7727 36.6049C46.8106 36.7073 46.8485 36.8059 46.8902 36.9083Z" fill="#D73316"/>
<path d="M49.1144 36.5027C49.0006 37.1586 48.5494 37.3634 48.083 37.2989C47.5332 37.2269 47.1768 36.8667 47.2565 36.2335C47.3095 35.8202 47.3664 35.4031 47.4233 34.9898C47.5598 35.005 47.6963 35.0201 47.8328 35.0391C47.7759 35.4258 47.719 35.8126 47.666 36.1993C47.6091 36.605 47.7494 36.8932 48.1361 36.9463C48.4736 36.9918 48.6669 36.787 48.7352 36.3662C48.7997 35.9718 48.8641 35.5775 48.9324 35.1832C49.0651 35.2021 49.2016 35.2249 49.3343 35.2438C49.2585 35.6647 49.1864 36.0818 49.1144 36.5027Z" fill="#D73316"/>
<path d="M51.0401 37.7617C50.7443 37.1892 50.4372 36.6204 50.1187 36.0517C50.0239 36.5446 49.9291 37.0413 49.8419 37.5342C49.7206 37.5115 49.603 37.4925 49.4817 37.4736C49.6068 36.7607 49.7357 36.0441 49.8722 35.3313C49.9784 35.3502 50.0884 35.3692 50.1945 35.3844C50.5168 35.9531 50.8315 36.5256 51.1273 37.102C51.2334 36.6091 51.3396 36.1161 51.4534 35.6232C51.5785 35.6498 51.7036 35.6725 51.8287 35.6991C51.6657 36.4081 51.5064 37.1134 51.351 37.8224C51.2448 37.7996 51.1424 37.7807 51.0401 37.7617Z" fill="#D73316"/>
<path d="M52.3724 35.8147C52.3876 35.8185 52.399 35.8223 52.4142 35.8223C52.5507 35.8526 52.8729 35.9171 53.0398 35.9588C53.9422 36.1787 54.1583 36.7626 54.0029 37.3124C53.8322 37.9039 53.2976 38.2717 52.4824 38.0783C52.3535 38.048 52.1146 37.9873 51.9174 37.9418C51.9023 37.938 51.8871 37.9342 51.8757 37.9304C52.0312 37.229 52.198 36.52 52.3724 35.8147ZM52.6796 36.2545C52.562 36.7285 52.4445 37.1987 52.3307 37.6726C52.4331 37.7029 52.5203 37.7219 52.5734 37.7371C53.0966 37.8622 53.472 37.6537 53.5933 37.21C53.7109 36.7892 53.4758 36.4365 52.9412 36.3076C52.8502 36.2849 52.7706 36.2697 52.6796 36.2545Z" fill="#D73316"/>
<path d="M55.2346 36.5525C55.3483 36.5866 55.4621 36.6207 55.5758 36.6548C55.663 37.4397 55.7427 38.2284 55.8109 39.0132C55.682 38.9715 55.5493 38.9298 55.4204 38.8881C55.4052 38.6872 55.3862 38.49 55.3673 38.289C55.064 38.1942 54.7606 38.107 54.4573 38.0198C54.3322 38.1753 54.207 38.3345 54.0819 38.4938C53.9568 38.4597 53.8317 38.4255 53.7065 38.3914C54.1957 37.7696 54.7037 37.1553 55.2346 36.5525ZM54.7 37.7203C54.9085 37.781 55.1208 37.8416 55.3294 37.9061C55.3028 37.6293 55.2763 37.3487 55.246 37.0719C55.0602 37.288 54.8782 37.5004 54.7 37.7203Z" fill="#D73316"/>
<path d="M40.7073 42.3113C40.7149 41.587 40.7224 40.8591 40.7414 40.1311C40.8741 40.1311 41.2495 40.1235 41.4163 40.1235C42.114 40.1273 42.3187 40.4799 42.2998 40.8363C42.2808 41.2079 41.9737 41.534 41.4239 41.5302C41.3557 41.5302 41.2229 41.5302 41.1244 41.5188C41.1206 41.7804 41.113 42.042 41.1092 42.3075C40.9727 42.3075 40.84 42.3075 40.7073 42.3113ZM41.1471 40.4875C41.1395 40.7112 41.1357 40.9349 41.1319 41.1548C41.2267 41.1624 41.3291 41.17 41.4201 41.17C41.6628 41.17 41.8562 41.0638 41.8637 40.8211C41.8713 40.5936 41.7272 40.4799 41.4429 40.4761C41.3594 40.4837 41.2571 40.4875 41.1471 40.4875Z" fill="#D73316"/>
<path d="M43.7371 40.1618C44.4386 40.196 44.9201 40.6813 44.8557 41.3562C44.795 42.0084 44.2528 42.4368 43.5817 42.4027C42.9144 42.3686 42.4214 41.9136 42.4518 41.2387C42.4821 40.6055 43.0091 40.1277 43.7371 40.1618ZM43.6044 42.0463C44.0822 42.069 44.3931 41.7543 44.4272 41.3259C44.4651 40.8785 44.1504 40.541 43.7068 40.5183C43.2594 40.4955 42.903 40.7988 42.8802 41.25C42.8613 41.6861 43.1798 42.0273 43.6044 42.0463Z" fill="#D73316"/>
<path d="M45.1659 40.8555C45.1962 40.5294 45.4995 40.2792 45.9545 40.3209C46.2427 40.3474 46.4702 40.4612 46.5915 40.6166C46.5081 40.7038 46.4209 40.791 46.3375 40.8783C46.2389 40.7645 46.1327 40.6963 45.9469 40.6773C45.746 40.6583 45.6133 40.7455 45.5981 40.8858C45.5526 41.3332 46.6067 41.2877 46.5157 42.012C46.4702 42.376 46.1138 42.5883 45.6967 42.5504C45.4085 42.5238 45.0825 42.3759 44.9915 42.1484C45.0749 42.0688 45.1583 41.9854 45.2417 41.9058C45.3592 42.0802 45.564 42.1788 45.7384 42.194C45.9242 42.2091 46.0759 42.1333 46.0948 41.9702C46.1441 41.5418 45.1014 41.557 45.1659 40.8555Z" fill="#D73316"/>
<path d="M46.9106 41.018C46.9523 40.6958 47.2594 40.4531 47.7106 40.5062C47.995 40.5403 48.2187 40.6616 48.3325 40.8247C48.2452 40.9081 48.158 40.9953 48.0708 41.0787C47.976 40.9612 47.8737 40.8891 47.6879 40.8664C47.4869 40.8398 47.3542 40.9232 47.3315 41.0635C47.2708 41.5072 48.3211 41.4996 48.2073 42.2162C48.1505 42.5802 47.7903 42.7774 47.377 42.7281C47.0926 42.6939 46.7741 42.5347 46.6907 42.3034C46.7741 42.2238 46.8613 42.1479 46.9485 42.0683C47.0585 42.2465 47.2594 42.3527 47.4338 42.3717C47.6196 42.3944 47.7713 42.3224 47.794 42.1593C47.8623 41.7384 46.8234 41.7195 46.9106 41.018Z" fill="#D73316"/>
<path d="M48.8418 40.6962C49.2854 40.7606 49.7252 40.8327 50.165 40.9085C50.1423 41.026 50.1195 41.1436 50.0968 41.2611C49.7935 41.208 49.4863 41.1588 49.183 41.1095C49.1527 41.2877 49.1223 41.4659 49.092 41.6441C49.3612 41.6858 49.6304 41.7313 49.8996 41.7768C49.8769 41.8943 49.8579 42.0119 49.8352 42.1294C49.566 42.0839 49.3005 42.0384 49.0313 41.9967C49.001 42.1825 48.9707 42.3683 48.9403 42.5503C49.2475 42.5996 49.5546 42.6489 49.8617 42.702C49.839 42.8195 49.82 42.937 49.7972 43.0546C49.365 42.9787 48.929 42.9105 48.4929 42.846C48.6067 42.1294 48.7204 41.4128 48.8418 40.6962Z" fill="#D73316"/>
<path d="M50.4044 41.5259C50.4651 41.2074 50.7874 40.9837 51.2272 41.0709C51.504 41.124 51.7201 41.2605 51.8225 41.4273C51.7315 41.5069 51.6405 41.5828 51.5495 41.6624C51.4623 41.541 51.3675 41.4614 51.1855 41.4235C50.9883 41.3856 50.8518 41.4576 50.8215 41.5979C50.7343 42.0378 51.7694 42.0984 51.6101 42.8075C51.5305 43.1639 51.1627 43.3421 50.757 43.2625C50.4764 43.2094 50.1731 43.0312 50.1086 42.7923C50.1996 42.7203 50.2869 42.6482 50.3779 42.5762C50.4764 42.762 50.666 42.8795 50.8366 42.9136C51.0186 42.9478 51.1741 42.8871 51.2082 42.7278C51.2916 42.307 50.2679 42.2198 50.4044 41.5259Z" fill="#D73316"/>
<path d="M52.0954 41.8598C52.1674 41.5413 52.4935 41.329 52.9295 41.4314C53.2063 41.4958 53.4111 41.6361 53.5097 41.8068C53.4149 41.8826 53.3239 41.9584 53.2291 42.0343C53.1457 41.9091 53.0547 41.8257 52.8765 41.784C52.6831 41.7385 52.5428 41.8068 52.5087 41.947C52.4063 42.3831 53.4338 42.4779 53.2556 43.1831C53.1646 43.5395 52.793 43.7026 52.3911 43.6116C52.1143 43.5471 51.8186 43.3613 51.7617 43.1225C51.8527 43.0542 51.9437 42.9822 52.0347 42.9139C52.1257 43.1035 52.3115 43.2248 52.4783 43.2665C52.6566 43.3083 52.8158 43.2514 52.8537 43.0921C52.9561 42.6713 51.9399 42.5499 52.0954 41.8598Z" fill="#D73316"/>
<path d="M54.0666 41.742C54.1956 41.7761 54.3283 41.8102 54.4572 41.8405C54.2638 42.5382 54.0704 43.2397 53.8847 43.9411C53.7595 43.907 53.6344 43.8767 53.5093 43.8463C53.6913 43.1449 53.8771 42.4434 54.0666 41.742Z" fill="#D73316"/>
<path d="M56.0311 42.2462C56.6833 42.4396 57.0245 43.0197 56.8122 43.6605C56.6074 44.2786 55.997 44.5743 55.379 44.3923C54.7571 44.2103 54.4007 43.6567 54.5827 43.0008C54.7495 42.3941 55.3562 42.0453 56.0311 42.2462ZM55.4775 44.0511C55.9212 44.18 56.2852 43.9449 56.4141 43.5354C56.5506 43.107 56.3344 42.7088 55.9212 42.5875C55.5041 42.4624 55.1022 42.6785 54.977 43.1107C54.8595 43.5316 55.0832 43.9335 55.4775 44.0511Z" fill="#D73316"/>
<path d="M45.1719 46.0157C45.6648 46.0157 46.1539 46.0308 46.6355 46.0688C46.6203 46.1863 46.6051 46.3076 46.5938 46.4252C46.2639 46.4024 45.9302 46.3835 45.5928 46.3797C45.5814 46.5617 45.57 46.7399 45.5624 46.9219C45.8544 46.9257 46.1425 46.9408 46.4307 46.9598C46.4193 47.0773 46.408 47.1987 46.3966 47.3162C46.1122 47.2972 45.8278 47.2859 45.5435 47.2783C45.5359 47.4641 45.5283 47.6537 45.5207 47.8395C45.843 47.8432 46.1615 47.8584 46.4762 47.8812C46.4648 47.9987 46.4572 48.12 46.4459 48.2376C46.006 48.2034 45.5586 48.1921 45.1074 48.1921C45.115 47.4679 45.1378 46.7437 45.1719 46.0157Z" fill="#D73316"/>
<path d="M46.9537 46.6628C46.9954 46.3405 47.329 46.0903 47.8106 46.1586C48.1139 46.2003 48.349 46.333 48.4665 46.4998C48.3717 46.5794 48.2732 46.6591 48.1822 46.7425C48.0874 46.6211 47.9774 46.5453 47.784 46.5188C47.5717 46.4884 47.4276 46.5718 47.4049 46.7121C47.3404 47.1482 48.4286 47.1671 48.2807 47.8875C48.2087 48.2478 47.8447 48.4335 47.4352 48.3767C47.1546 48.3388 46.8361 48.1833 46.7451 47.9558C46.8285 47.8762 46.9158 47.7965 47.003 47.7169C47.1167 47.8951 47.3177 47.9975 47.4921 48.024C47.6779 48.0506 47.8333 47.9823 47.8599 47.8193C47.9395 47.3833 46.8702 47.3567 46.9537 46.6628Z" fill="#D73316"/>
<path d="M48.7036 46.3408C49.3748 46.4659 50.0307 46.6289 50.6753 46.8261C50.6374 46.9398 50.5957 47.0536 50.5578 47.1635C50.3075 47.0877 50.0573 47.0157 49.8032 46.9512C49.6326 47.5351 49.4696 48.119 49.3217 48.7067C49.1966 48.6764 49.0752 48.6461 48.9501 48.6157C49.0866 48.0242 49.2345 47.4365 49.3937 46.8488C49.1397 46.7882 48.8819 46.7351 48.624 46.6858C48.6506 46.572 48.6771 46.4545 48.7036 46.3408Z" fill="#D73316"/>
</svg>
